<?xml version="1.0" encoding="UTF-8"?>
<svg version="1.1" xmlns="http://www.w3.org/2000/svg" width="585" height="427">
<path d="M0 0 C1.57082092 -0.00572196 3.14163769 -0.01269315 4.71244812 -0.02079773 C8.92744511 -0.03854183 13.14223183 -0.03759677 17.35725474 -0.03185534 C20.89806275 -0.0287364 24.43883191 -0.03488558 27.97963434 -0.04089409 C36.34290195 -0.05487581 44.70606726 -0.05343099 53.06933594 -0.04199219 C61.65021991 -0.03051393 70.2307912 -0.04459631 78.811634 -0.07138866 C86.22449733 -0.09365351 93.63726327 -0.10015901 101.05015761 -0.09431225 C105.4575711 -0.09096752 109.86478427 -0.09319018 114.27216911 -0.11056328 C118.41997274 -0.12620415 122.5673184 -0.12189051 126.71510506 -0.10325813 C128.22216845 -0.09961925 129.72926713 -0.10254015 131.23629761 -0.11314392 C145.03510895 -0.20269519 159.07169638 1.63959535 171.33227539 8.40405273 C171.97680664 8.73405273 172.62133789 9.06405273 173.28540039 9.40405273 C177.04895083 11.37837428 180.44478538 13.53001609 183.58227539 16.40405273 C183.58227539 17.06405273 183.58227539 17.72405273 183.58227539 18.40405273 C184.20102539 18.65155273 184.81977539 18.89905273 185.45727539 19.15405273 C187.93296226 20.61033913 188.53352542 21.7821778 189.58227539 24.40405273 C190.24227539 24.40405273 190.90227539 24.40405273 191.58227539 24.40405273 C200.94366759 34.53006195 204.64026322 47.05431461 206.58227539 60.40405273 C206.74934494 61.39507492 206.91641449 62.38609711 207.08854675 63.40715027 C208.91742186 75.18084232 208.89174048 86.87392542 208.88305664 98.76733398 C208.88695446 101.01206032 208.89129132 103.25678593 208.89604187 105.50151062 C208.90346178 110.18543905 208.90324374 114.86929205 208.89794922 119.55322266 C208.89216094 125.50702725 208.9090912 131.46052011 208.93229389 137.41427326 C208.94714231 142.04473119 208.94788793 146.67511596 208.94478416 151.30559349 C208.94529183 153.49847213 208.95042317 155.69135548 208.96059608 157.88421059 C209.09698501 191.38852289 209.09698501 191.38852289 201.58227539 205.40405273 C200.98625193 206.7526821 200.40204768 208.10662454 199.83227539 209.46655273 C199.41977539 210.43592773 199.00727539 211.40530273 198.58227539 212.40405273 C197.92227539 212.40405273 197.26227539 212.40405273 196.58227539 212.40405273 C196.33864258 213.1272168 196.09500977 213.85038086 195.84399414 214.59545898 C189.97332194 227.66361166 174.7066726 237.15930546 161.94555664 242.50952148 C159.5011009 243.30548476 157.10242542 243.89694938 154.58227539 244.40405273 C153.65415039 244.59483398 152.72602539 244.78561523 151.76977539 244.98217773 C142.62075036 246.5518634 133.43766094 246.77516511 124.17211914 246.97485352 C108.98860174 247.03618126 108.98860174 247.03618126 96.30883789 254.23608398 C93.79208426 257.39626106 91.96965425 260.76379477 90.14868164 264.36108398 C79.55357131 284.94360504 79.55357131 284.94360504 70.58227539 289.40405273 C64.46779179 290.28068121 57.71632896 290.59582182 52.14477539 287.59155273 C47.30298722 283.9395202 44.49738739 278.61114468 41.58227539 273.40405273 C41.12981445 272.6009668 40.67735352 271.79788086 40.21118164 270.97045898 C39.39300281 269.49977616 38.58271239 268.02466891 37.78149414 266.54467773 C36.14598439 263.62526619 34.3363503 260.82948991 32.50024414 258.03295898 C31.58227539 256.40405273 31.58227539 256.40405273 31.58227539 254.40405273 C30.92227539 254.40405273 30.26227539 254.40405273 29.58227539 254.40405273 C28.71602539 253.47592773 28.71602539 253.47592773 27.83227539 252.52905273 C21.64056468 246.68132595 11.65031273 247.31230433 3.63452148 247.11352539 C-5.4964644 246.88429008 -14.52374469 246.54372027 -23.54272461 245.02905273 C-24.23277588 244.91513184 -24.92282715 244.80121094 -25.63378906 244.68383789 C-30.47326705 243.78960599 -34.8813973 242.24935928 -39.41772461 240.40405273 C-40.25819336 240.07405273 -41.09866211 239.74405273 -41.96459961 239.40405273 C-57.03390847 232.56408275 -71.21710203 216.51736191 -77.20748901 201.30749512 C-84.65882589 180.4423799 -82.89521653 155.99504397 -82.80883789 134.13061523 C-82.79185468 129.79949338 -82.80185327 125.46892919 -82.81915474 121.13782692 C-82.87759114 103.87686438 -82.56674385 86.7233153 -81.05834961 69.52124023 C-80.99850262 68.82052902 -80.93865562 68.11981781 -80.87699509 67.39787292 C-79.37529016 50.29692738 -75.69441017 37.42349879 -64.41772461 24.40405273 C-63.71131836 23.50944336 -63.00491211 22.61483398 -62.27709961 21.69311523 C-60.47443305 19.47386606 -58.82699252 17.92992241 -56.41772461 16.40405273 C-55.75772461 16.40405273 -55.09772461 16.40405273 -54.41772461 16.40405273 C-54.41772461 15.74405273 -54.41772461 15.08405273 -54.41772461 14.40405273 C-39.84328554 1.60698428 -18.51069444 -0.06211094 0 0 Z M-7.41772461 125.34155273 C-8.69569746 129.25534458 -8.548712 131.44559687 -7.41772461 135.40405273 C-5.21559079 138.9814969 -2.5465484 142.22438879 1.58227539 143.40405273 C6.29478148 143.86010171 8.58589264 143.90224411 12.83227539 141.77905273 C16.6607888 138.47260933 19.15828379 135.57112094 20.14477539 130.52905273 C19.16974156 125.11219814 16.40928066 120.9841654 12.26977539 117.40405273 C2.97521083 113.94561011 -2.22880111 117.72032134 -7.41772461 125.34155273 Z M52.28930664 121.94702148 C49.68556222 125.83042186 49.08725794 128.89146196 49.96899414 133.47827148 C51.18224689 137.28803967 52.99828527 140.4343984 56.44555664 142.54467773 C60.13389412 144.02810414 63.67902124 143.95294785 67.58227539 143.40405273 C71.96481093 141.21278496 74.74897355 138.98730735 76.58227539 134.40405273 C77.33774706 130.35197739 77.51099072 126.94899113 75.34008789 123.33764648 C71.94445145 119.29160206 69.23999561 116.56710718 63.76977539 116.02905273 C58.7400192 116.18594421 55.54559707 118.06111599 52.28930664 121.94702148 Z M109.76977539 122.09155273 C107.31701137 126.86798793 107.01618287 131.63917605 108.64477539 136.71655273 C111.39451858 140.53071264 113.9996499 142.95047335 118.76196289 143.78686523 C124.15621356 144.05930214 127.42758789 143.06413458 131.58227539 139.40405273 C134.46767753 135.94157017 135.12574765 132.91312966 134.92993164 128.39233398 C134.10804858 123.69190164 131.28653634 120.99876198 127.76977539 118.02905273 C120.34613637 114.24445245 115.50034852 116.75619154 109.76977539 122.09155273 Z " fill="#916DFE" transform="translate(229.417724609375,-0.404052734375)"/>
<path d="M0 0 C0.7734375 0.02191406 1.546875 0.04382813 2.34375 0.06640625 C3.1171875 0.06511719 3.890625 0.06382812 4.6875 0.0625 C6.84375 0.62890625 6.84375 0.62890625 8.44140625 2.2109375 C10.23809161 5.30884345 11.52170669 8.53834232 12.78125 11.87890625 C14.42953496 16.14735687 16.09098229 20.32024613 18.21875 24.37890625 C19.84375 27.62890625 19.84375 27.62890625 19.84375 30.62890625 C20.50375 30.62890625 21.16375 30.62890625 21.84375 30.62890625 C22.09253906 29.83613281 22.34132813 29.04335938 22.59765625 28.2265625 C24.14546883 23.75779954 25.94494497 19.42299782 27.78125 15.06640625 C28.12865234 14.22916016 28.47605469 13.39191406 28.83398438 12.52929688 C32.76140245 3.18781096 32.76140245 3.18781096 34.84375 0.62890625 C37.32421875 0.140625 37.32421875 0.140625 40.03125 0.31640625 C40.93230469 0.36152344 41.83335937 0.40664063 42.76171875 0.453125 C43.44878906 0.51113281 44.13585937 0.56914062 44.84375 0.62890625 C45.23046875 1.54671875 45.6171875 2.46453125 46.015625 3.41015625 C49.28221682 11.21014279 49.28221682 11.21014279 52.96875 18.81640625 C55.76178171 24.23817369 58.84375 30.4740182 58.84375 36.62890625 C55.54375 36.62890625 52.24375 36.62890625 48.84375 36.62890625 C47.85375 33.65890625 47.85375 33.65890625 46.84375 30.62890625 C41.89375 30.62890625 36.94375 30.62890625 31.84375 30.62890625 C31.18375 32.60890625 30.52375 34.58890625 29.84375 36.62890625 C27.07129986 36.7637822 24.30537912 36.86291432 21.53125 36.94140625 C20.74556641 36.98330078 19.95988281 37.02519531 19.15039062 37.06835938 C16.94347567 37.11531501 15.00091021 37.10312683 12.84375 36.62890625 C10.77485602 34.20398844 9.84375 32.8285963 9.84375 29.62890625 C7.40139178 29.63491451 4.97181579 29.68219082 2.53125 29.75390625 C1.84095703 29.75132812 1.15066406 29.74875 0.43945312 29.74609375 C-1.86325692 29.77374501 -1.86325692 29.77374501 -5.15625 30.62890625 C-7.2208352 33.54609193 -7.2208352 33.54609193 -8.15625 36.62890625 C-11.45625 36.62890625 -14.75625 36.62890625 -18.15625 36.62890625 C-17.08436219 32.92602107 -15.67561373 29.59928044 -13.90625 26.19140625 C-11.35085969 21.21671151 -9.2870597 16.11563127 -7.29980469 10.89477539 C-3.48351963 1.01602656 -3.48351963 1.01602656 0 0 Z M1.84375 12.62890625 C0.35875 16.58890625 0.35875 16.58890625 -1.15625 20.62890625 C1.15375 20.62890625 3.46375 20.62890625 5.84375 20.62890625 C4.85375 17.98890625 3.86375 15.34890625 2.84375 12.62890625 C2.51375 12.62890625 2.18375 12.62890625 1.84375 12.62890625 Z M38.84375 12.62890625 C36.6423634 16.43318117 36.6423634 16.43318117 35.84375 20.62890625 C38.15375 20.62890625 40.46375 20.62890625 42.84375 20.62890625 C41.57400028 16.21368516 41.57400028 16.21368516 38.84375 12.62890625 Z " fill="#65576E" transform="translate(300.15625,325.37109375)"/>
<path d="M0 0 C3.63 0 7.26 0 11 0 C13.64 5.61 16.28 11.22 19 17 C22.14003122 13.85996878 23.79842077 10.74446658 25.6875 6.8125 C26.00783203 6.15830078 26.32816406 5.50410156 26.65820312 4.83007812 C27.44428292 3.22272093 28.22288683 1.61171142 29 0 C32.63 0 36.26 0 40 0 C40 11.88 40 23.76 40 36 C37.03 36 34.06 36 31 36 C30.67 30.72 30.34 25.44 30 20 C29.071875 21.77375 28.14375 23.5475 27.1875 25.375 C24.375 30.75 24.375 30.75 21 33 C18.51953125 33.00390625 18.51953125 33.00390625 16 32 C13.48757573 28.2013889 11.88566296 24.16599956 10 20 C9.67 25.28 9.34 30.56 9 36 C6.03 36 3.06 36 0 36 C0 24.12 0 12.24 0 0 Z " fill="#B7AEBD" transform="translate(207,326)"/>
<path d="M0 0 C3.63 -0.0825 7.26 -0.165 11 -0.25 C12.12792969 -0.28641602 13.25585938 -0.32283203 14.41796875 -0.36035156 C21.82166885 -0.44128058 27.36034851 0.59540934 32.875 5.75390625 C36.38463865 11.39613783 37.01121249 16.44619832 36 23 C34.64493679 27.77460508 32.74317024 30.88328884 28.4375 33.4375 C24.28160776 35.32654193 21.40852458 36.1237487 16.89453125 36.09765625 C16.00870361 36.09515869 15.12287598 36.09266113 14.21020508 36.09008789 C13.0889624 36.08098389 11.96771973 36.07187988 10.8125 36.0625 C7.244375 36.041875 3.67625 36.02125 0 36 C0 24.12 0 12.24 0 0 Z M10 8 C10 14.6 10 21.2 10 28 C18.14663837 28.52677675 18.14663837 28.52677675 24 25 C26.57189679 21.57080428 26.502142 18.16060514 26 14 C24.11760099 10.29987222 24.11760099 10.29987222 21 8 C17.18837497 7.49142644 13.87342198 7.71999359 10 8 Z " fill="#4C3C56" transform="translate(361,326)"/>
<path d="M0 0 C-1.09068668 3.77545388 -1.9083091 6.47043472 -5 9 C-5.84304687 8.50886719 -5.84304687 8.50886719 -6.703125 8.0078125 C-9.26859964 6.88214506 -10.96842277 6.7931889 -13.75 6.875 C-14.94882813 6.90207031 -14.94882813 6.90207031 -16.171875 6.9296875 C-17.07679688 6.96449219 -17.07679688 6.96449219 -18 7 C-18.33 7.66 -18.66 8.32 -19 9 C-18.35933594 9.17015625 -17.71867188 9.3403125 -17.05859375 9.515625 C-3.85705559 13.21441662 -3.85705559 13.21441662 0 19 C0.56080492 22.95476716 0.57847858 26.70693024 -1.0625 30.375 C-5.74983166 34.30631042 -10.57558521 35.57900108 -16.58203125 35.3515625 C-20.95329889 34.71599855 -25.34667768 33.52978074 -29 31 C-30.00821853 27.99879135 -30.25983123 26.64091704 -29.0625 23.6875 C-28.711875 23.130625 -28.36125 22.57375 -28 22 C-25.48318474 22.41946921 -23.37336785 22.79464768 -21.125 24.03125 C-18.65180176 25.15873743 -16.95133977 25.20445117 -14.25 25.125 C-13.05117187 25.09792969 -13.05117187 25.09792969 -11.828125 25.0703125 C-11.22484375 25.04710937 -10.6215625 25.02390625 -10 25 C-10 24.01 -10 23.02 -10 22 C-10.72445312 21.82984375 -11.44890625 21.6596875 -12.1953125 21.484375 C-19.26712692 19.71170685 -24.79279277 18.31081085 -29 12 C-29.33726976 8.35748661 -29.25350261 5.69713218 -28 2.25 C-20.58367559 -6.09336496 -9.22386906 -3.17543033 0 0 Z " fill="#40304B" transform="translate(166,328)"/>
<path d="M0 0 C1.62463842 -0.05395478 3.24978541 -0.09277195 4.875 -0.125 C6.23238281 -0.15980469 6.23238281 -0.15980469 7.6171875 -0.1953125 C10 0 10 0 12 2 C12.68124706 3.99508067 13.34427209 5.99638693 14 8 C15.84013328 12.44425047 17.86810532 16.78301 20.0625 21.0625 C25.60171733 32.0749916 25.60171733 32.0749916 24 37 C22.5619089 36.99397027 21.12396042 36.94373016 19.6875 36.875 C18.88699219 36.85179687 18.08648437 36.82859375 17.26171875 36.8046875 C16.14216797 36.40636719 16.14216797 36.40636719 15 36 C14.3503125 34.515 14.3503125 34.515 13.6875 33 C13.130625 32.01 12.57375 31.02 12 30 C9.1703969 29.36295275 7.14186274 29.11443282 4.3125 29.125 C3.2596582 29.0940625 3.2596582 29.0940625 2.18554688 29.0625 C0.45754532 29.01547955 -1.27136406 29.00425249 -3 29 C-3.99 32.465 -3.99 32.465 -5 36 C-7.97 36 -10.94 36 -14 36 C-14.33 35.34 -14.66 34.68 -15 34 C-14.24316406 31.7409668 -14.24316406 31.7409668 -13.015625 28.94921875 C-12.57476562 27.94052734 -12.13390625 26.93183594 -11.6796875 25.89257812 C-11.20789063 24.83490234 -10.73609375 23.77722656 -10.25 22.6875 C-9.79367188 21.64142578 -9.33734375 20.59535156 -8.8671875 19.51757812 C-5.43163973 11.71809034 -5.43163973 11.71809034 -3.41699219 8.36645508 C-1.80373476 5.67222623 -0.90628872 2.99772421 0 0 Z M4 13 C3.34 15.31 2.68 17.62 2 20 C3.98 20 5.96 20 8 20 C7.67 18.02 7.34 16.04 7 14 C6.01 13.67 5.02 13.34 4 13 Z " fill="#41324C" transform="translate(180,326)"/>
<path d="M0 0 C0.90492188 0.02320313 1.80984375 0.04640625 2.7421875 0.0703125 C3.65226562 0.08835937 4.56234375 0.10640625 5.5 0.125 C6.19867188 0.14820313 6.89734375 0.17140625 7.6171875 0.1953125 C8.00390625 1.113125 8.390625 2.0309375 8.7890625 2.9765625 C12.05565432 10.77654904 12.05565432 10.77654904 15.7421875 18.3828125 C18.53521921 23.80457994 21.6171875 30.04042445 21.6171875 36.1953125 C18.3171875 36.1953125 15.0171875 36.1953125 11.6171875 36.1953125 C10.9571875 34.2153125 10.2971875 32.2353125 9.6171875 30.1953125 C4.6671875 30.1953125 -0.2828125 30.1953125 -5.3828125 30.1953125 C-5.7128125 30.8553125 -6.0428125 31.5153125 -6.3828125 32.1953125 C-7.0428125 32.1953125 -7.7028125 32.1953125 -8.3828125 32.1953125 C-8.3828125 33.1853125 -8.3828125 34.1753125 -8.3828125 35.1953125 C-13.3328125 35.1953125 -18.2828125 35.1953125 -23.3828125 35.1953125 C-20.46016816 33.73399033 -18.45818104 32.85432004 -15.3828125 32.1953125 C-15.29 30.7721875 -15.29 30.7721875 -15.1953125 29.3203125 C-14.59272106 25.07671082 -12.77718647 21.78435041 -10.78515625 18.03125 C-8.68081204 13.77566812 -7.11074508 9.3428266 -5.49609375 4.8828125 C-4.17293765 1.68866726 -3.5607603 0.2918656 0 0 Z M1.6171875 12.1953125 C-0.5841991 15.99958742 -0.5841991 15.99958742 -1.3828125 20.1953125 C0.9271875 20.1953125 3.2371875 20.1953125 5.6171875 20.1953125 C4.34743778 15.78009141 4.34743778 15.78009141 1.6171875 12.1953125 Z " fill="#4D3D59" transform="translate(337.3828125,325.8046875)"/>
<path d="M0 0 C3.3 0 6.6 0 10 0 C11.12598637 2.56207058 12.25081988 5.12463699 13.375 7.6875 C13.69210937 8.40873047 14.00921875 9.12996094 14.3359375 9.87304688 C15.95202801 13.55975335 17.53536298 17.24964156 19 21 C22.07002332 15.0864305 24.83197675 9.1627168 27.203125 2.93359375 C28 1 28 1 29 0 C30.51928038 -0.07179964 32.04167482 -0.08392007 33.5625 -0.0625 C34.38878906 -0.05347656 35.21507812 -0.04445313 36.06640625 -0.03515625 C36.70449219 -0.02355469 37.34257812 -0.01195312 38 0 C36.03769429 8.8517051 31.94112358 17.29169155 28.13671875 25.4765625 C26.58158785 28.92884621 25.27743761 32.43662139 24 36 C20.7 36 17.4 36 14 36 C13.56300781 34.94425781 13.56300781 34.94425781 13.1171875 33.8671875 C7.77192588 20.94038193 7.77192588 20.94038193 2.15332031 8.13134766 C0.85851436 5.23738805 0 3.20889865 0 0 Z " fill="#3A2A45" transform="translate(249,326)"/>
<path d="M0 0 C3.44829534 -0.48209178 6.57213514 -0.69292215 10 0 C12.42322389 2.3289566 13.6632344 4.94771855 15 8 C16.30223457 11.1489251 16.30223457 11.1489251 19 13 C19.226875 12.34 19.45375 11.68 19.6875 11 C20.120625 10.01 20.55375 9.02 21 8 C21.29519531 7.30261719 21.59039062 6.60523438 21.89453125 5.88671875 C23.08046898 3.52741508 24.07072156 1.81449299 26 0 C29.42851266 -0.68780269 32.5518451 -0.48207214 36 0 C34.75256064 2.5221286 33.50212931 5.04270078 32.25 7.5625 C31.90195312 8.26697266 31.55390625 8.97144531 31.1953125 9.69726562 C29.50699534 13.08953251 27.78227689 16.37511713 25.78125 19.59375 C23.85159359 23.2837947 23.42032669 25.80707781 23.25 29.9375 C23.19328125 31.08089844 23.1365625 32.22429687 23.078125 33.40234375 C23.05234375 34.25957031 23.0265625 35.11679687 23 36 C20.03 36 17.06 36 14 36 C13.24531136 32.98124545 12.93144487 30.92914338 12.81640625 27.93359375 C12.17663929 21.82262987 9.10229833 17.20936631 5.9375 12.0625 C4.81821456 10.20125918 3.70215164 8.33807536 2.58984375 6.47265625 C2.09347412 5.66062744 1.59710449 4.84859863 1.08569336 4.01196289 C0 2 0 2 0 0 Z " fill="#685A71" transform="translate(414,326)"/>
<path d="M0 0 C9.78025207 8.96523106 13.06791115 21.2386492 15 34 C15.16908371 34.99706467 15.33816742 35.99412933 15.51237488 37.02140808 C17.33615459 48.7886119 17.30945991 60.47697342 17.30078125 72.36328125 C17.30467907 74.60800758 17.30901593 76.85273319 17.31376648 79.09745789 C17.32118639 83.78138632 17.32096835 88.46523931 17.31567383 93.14916992 C17.30988555 99.10297452 17.32681581 105.05646738 17.3500185 111.01022053 C17.36486692 115.64067846 17.36561254 120.27106323 17.36250877 124.90154076 C17.36301644 127.0944194 17.36814778 129.28730275 17.37832069 131.48015785 C17.43125984 144.48480449 17.22456716 157.32363995 14 170 C13.01 170.99 13.01 170.99 12 172 C12.07087043 171.35141871 12.14174086 170.70283743 12.21475887 170.03460217 C12.94397376 162.82265872 13.13697934 155.70521017 13.11352539 148.46020508 C13.11367142 147.25890961 13.11381744 146.05761414 13.1139679 144.81991577 C13.11339529 141.56238893 13.10841961 138.30490643 13.10139394 135.04738832 C13.09509413 131.62946917 13.0945514 128.21154893 13.09336853 124.79362488 C13.0902746 118.33765214 13.08208762 111.88169658 13.07201904 105.42573136 C13.06079735 98.06890763 13.05533227 90.71208303 13.05032361 83.35525286 C13.03990316 68.23682572 13.02234167 53.11841459 13 38 C12.34 38 11.68 38 11 38 C11.02320313 37.35933594 11.04640625 36.71867187 11.0703125 36.05859375 C11.18440863 30.59012904 10.79791904 26.16901723 9 21 C8.67 21 8.34 21 8 21 C7.84144531 20.38253906 7.68289063 19.76507813 7.51953125 19.12890625 C5.9769348 13.52953681 3.9971634 8.78292479 0.98828125 3.8125 C0 2 0 2 0 0 Z " fill="#B19BEE" transform="translate(421,26)"/>
<path d="M0 0 C6.73828125 -0.390625 6.73828125 -0.390625 9 0 C12.18554822 3.04246213 13.07087116 6.84665065 14.25 11 C14.60578125 12.216875 14.9615625 13.43375 15.328125 14.6875 C15.94235549 17.71579918 16.09997794 19.17954375 15 22 C13.68 22.33 12.36 22.66 11 23 C11 24.32 11 25.64 11 27 C4.73 27 -1.54 27 -8 27 C-8.33 25.35 -8.66 23.7 -9 22 C-6.42595029 18.13892543 -4.38979741 18.05680308 0 17 C-0.33 18.65 -0.66 20.3 -1 22 C2.63 22 6.26 22 10 22 C9.6390625 21.15695312 9.278125 20.31390625 8.90625 19.4453125 C8.4421875 18.34960938 7.978125 17.25390625 7.5 16.125 C7.0359375 15.03445313 6.571875 13.94390625 6.09375 12.8203125 C5 10 5 10 5 8 C4.401875 8.165 3.80375 8.33 3.1875 8.5 C1 9 1 9 -2 9 C-1.34 6.03 -0.68 3.06 0 0 Z " fill="#200F2E" transform="translate(298,326)"/>
<path d="M0 0 C2.97 0 5.94 0 9 0 C9 11.22 9 22.44 9 34 C6.69 34 4.38 34 2 34 C1.67 27.07 1.34 20.14 1 13 C0.34 14.65 -0.32 16.3 -1 18 C-1.66 18 -2.32 18 -3 18 C-4 15 -4 15 -4 13 C-4.33 12.34 -4.66 11.68 -5 11 C-4.39421747 8.98072489 -3.73080266 6.97746603 -3 5 C-2.34 5 -1.68 5 -1 5 C-0.67 3.35 -0.34 1.7 0 0 Z " fill="#20112E" transform="translate(237,327)"/>
<path d="M0 0 C2.97 0 5.94 0 9 0 C12.34482235 3.34482235 12.52853468 4.47393289 13 9 C13 9.99 13 10.98 13 12 C13.66 12.66 14.32 13.32 15 14 C12.69 14 10.38 14 8 14 C7.67 20.6 7.34 27.2 7 34 C4.69 34 2.38 34 0 34 C0 22.78 0 11.56 0 0 Z " fill="#22122E" transform="translate(208,327)"/>
<path d="M0 0 C0.33 0 0.66 0 1 0 C1.01030746 1.09786331 1.02061493 2.19572662 1.03123474 3.32685852 C1.12967533 13.75473302 1.23246499 24.18255714 1.33933926 34.6103487 C1.39412796 39.96929971 1.44746904 45.32825641 1.49731445 50.68725586 C1.54561841 55.87446741 1.59796946 61.06162474 1.65294075 66.24876976 C1.67307007 68.21193246 1.69182495 70.17510982 1.70907402 72.13829994 C1.79651394 81.98837794 1.95810466 91.83107518 2.39477539 101.67260742 C2.42442855 102.47000241 2.45408171 103.2673974 2.48463345 104.08895588 C2.67486546 107.85693232 2.86342918 109.79514377 5 113 C5.42547177 114.90210907 5.77145414 116.82273836 6.0625 118.75 C6.22621094 119.8121875 6.38992187 120.874375 6.55859375 121.96875 C6.70425781 122.9690625 6.84992188 123.969375 7 125 C7.17208984 126.16015625 7.17208984 126.16015625 7.34765625 127.34375 C7.57330135 128.89466281 7.78824496 130.44712973 8 132 C4.57122304 130.28561152 4.13532357 126.57216132 2.93054199 123.0958252 C1.51476135 118.38565692 0.79910623 113.74104069 0.265625 108.859375 C0.14358704 107.76437683 0.02154907 106.66937866 -0.10418701 105.54119873 C-1.71623543 89.0660022 -1.36887887 72.47959547 -1.26428223 55.94580078 C-1.24511958 52.3288106 -1.24112319 48.71187138 -1.2375679 45.09483719 C-1.23238069 40.71424407 -1.21791697 36.33369428 -1.203125 31.953125 C-1.20124428 31.14398903 -1.19936356 30.33485306 -1.19742584 29.50119781 C-1.16767609 19.61944313 -0.85736035 9.85086513 0 0 Z " fill="#DED3FC" transform="translate(148,74)"/>
<path d="M0 0 C5.28948291 4.88375553 7.86472143 12.25701506 10 19 C9.57421875 21.234375 9.57421875 21.234375 9 23 C7.5619089 22.99397027 6.12396042 22.94373016 4.6875 22.875 C3.88699219 22.85179687 3.08648437 22.82859375 2.26171875 22.8046875 C1.51535156 22.53914063 0.76898438 22.27359375 0 22 C-0.433125 21.01 -0.86625 20.02 -1.3125 19 C-1.869375 18.01 -2.42625 17.02 -3 16 C-5.8296031 15.36295275 -7.85813726 15.11443282 -10.6875 15.125 C-11.7403418 15.0940625 -11.7403418 15.0940625 -12.81445312 15.0625 C-14.54245468 15.01547955 -16.27136406 15.00425249 -18 15 C-18.66 17.31 -19.32 19.62 -20 22 C-22.97 22 -25.94 22 -29 22 C-29.33 21.34 -29.66 20.68 -30 20 C-29.06553465 17.96855359 -28.06775224 15.96466413 -27 14 C-26 16 -25 18 -24 20 C-23.01 20 -22.02 20 -21 20 C-21 16.04 -21 12.08 -21 8 C-19.68 8 -18.36 8 -17 8 C-16.34 9.65 -15.68 11.3 -15 13 C-8.07 13.495 -8.07 13.495 -1 14 C-1.33 13.01 -1.66 12.02 -2 11 C-1.2575 10.13375 -1.2575 10.13375 -0.5 9.25 C1.38531741 6.92730313 1.38531741 6.92730313 0.6875 3.25 C0.3471875 1.64125 0.3471875 1.64125 0 0 Z " fill="#21102B" transform="translate(195,340)"/>
<path d="M0 0 C3.63 0 7.26 0 11 0 C11 0.33 11 0.66 11 1 C7.7 1 4.4 1 1 1 C1 7.6 1 14.2 1 21 C7.09628156 20.38430385 7.09628156 20.38430385 13 19 C15.32584337 16.0389473 15.95934357 14.31944338 16.4375 10.5625 C15.92682899 6.40417889 14.55170509 4.26937215 12 1 C16.55727842 2.72862285 17.90834857 5.81669715 20 10 C22.35448165 7.44931155 22.98327924 6.28982642 23.1875 2.75 C23.125625 1.8425 23.06375 0.935 23 0 C25.59301941 1.2965097 25.94059864 2.32846613 27 5 C27.82489851 11.17714697 27.48342033 16.87363878 24.34765625 22.3359375 C21.96698898 25.27554405 19.46837087 26.52273092 16 28 C15.34 27.67 14.68 27.34 14 27 C14.66 26.01 15.32 25.02 16 24 C16 24.66 16 25.32 16 26 C16.66 26 17.32 26 18 26 C17.979375 25.21625 17.95875 24.4325 17.9375 23.625 C18 21 18 21 19 19 C15.92463146 19.65900754 13.92264434 20.53867783 11 22 C7.37 22 3.74 22 0 22 C0 14.74 0 7.48 0 0 Z " fill="#897C91" transform="translate(370,333)"/>
<path d="M0 0 C1.37478516 0.01740234 1.37478516 0.01740234 2.77734375 0.03515625 C3.69644531 0.04417969 4.61554688 0.05320312 5.5625 0.0625 C6.27277344 0.07410156 6.98304688 0.08570313 7.71484375 0.09765625 C7.71484375 2.73765625 7.71484375 5.37765625 7.71484375 8.09765625 C8.37484375 8.42765625 9.03484375 8.75765625 9.71484375 9.09765625 C9.38484375 9.75765625 9.05484375 10.41765625 8.71484375 11.09765625 C7.72484375 11.42765625 6.73484375 11.75765625 5.71484375 12.09765625 C5.71484375 11.10765625 5.71484375 10.11765625 5.71484375 9.09765625 C4.72484375 8.76765625 3.73484375 8.43765625 2.71484375 8.09765625 C1.06484375 11.72765625 -0.58515625 15.35765625 -2.28515625 19.09765625 C-2.94515625 19.09765625 -3.60515625 19.09765625 -4.28515625 19.09765625 C-4.28515625 19.75765625 -4.28515625 20.41765625 -4.28515625 21.09765625 C-6.26515625 21.42765625 -8.24515625 21.75765625 -10.28515625 22.09765625 C-7.11777444 0.30417839 -7.11777444 0.30417839 0 0 Z " fill="#3A2B46" transform="translate(337.28515625,325.90234375)"/>
<path d="M0 0 C3.3 0 6.6 0 10 0 C11.01680643 2.01242939 12.01273789 4.0354132 13 6.0625 C13.8353125 7.75052734 13.8353125 7.75052734 14.6875 9.47265625 C16.08753984 13.23526333 16.2433219 16.02067309 16 20 C15.01 20 14.02 20 13 20 C12.67 20.66 12.34 21.32 12 22 C9 21 9 21 7.8125 19.125 C7 17 7 17 7 14 C6.01 13.67 5.02 13.34 4 13 C2.83203125 10.8203125 2.83203125 10.8203125 1.8125 8.125 C1.29623047 6.79855469 1.29623047 6.79855469 0.76953125 5.4453125 C0 3 0 3 0 0 Z " fill="#22112C" transform="translate(249,326)"/>
<path d="M0 0 C0.99 0.495 0.99 0.495 2 1 C-14.39990049 11.8848897 -31.29221878 13.02285262 -50.42382812 13.60400391 C-58.41237322 13.86834789 -66.1320302 14.52654384 -74 16 C-74 15.01 -74 14.02 -74 13 C-68.30256893 10.11262933 -63.68779545 9.5353513 -57.34765625 9.48828125 C-56.44752304 9.47033005 -55.54738983 9.45237885 -54.61997986 9.43388367 C-51.76753309 9.38004755 -48.91525107 9.34597112 -46.0625 9.3125 C-44.11911783 9.27930332 -42.17575733 9.2448115 -40.23242188 9.20898438 C-35.48840064 9.12433659 -30.744426 9.05739864 -26 9 C-26 8.67 -26 8.34 -26 8 C-25.04480469 7.92523438 -24.08960938 7.85046875 -23.10546875 7.7734375 C-14.9654745 6.94564147 -9.11767284 5.640129 -2.07421875 1.14453125 C-1.38972656 0.76683594 -0.70523438 0.38914063 0 0 Z " fill="#B9A5EF" transform="translate(404,233)"/>
<path d="M0 0 C0 0.66 0 1.32 0 2 C1.32 2.33 2.64 2.66 4 3 C4 3.66 4 4.32 4 5 C0.66941954 7.01255455 -1.76916495 7.19241358 -5.625 7.0625 C-9.46174054 6.83502304 -9.46174054 6.83502304 -13 8 C-13.2475 8.825 -13.495 9.65 -13.75 10.5 C-14.1625 11.325 -14.575 12.15 -15 13 C-18.125 13.8125 -18.125 13.8125 -21 14 C-21.15079917 4.95205003 -21.15079917 4.95205003 -20 2 C-13.50759318 -1.18925247 -7.06722061 -2.3557402 0 0 Z " fill="#453751" transform="translate(160,326)"/>
<path d="M0 0 C3.20802233 -0.11698258 6.41549025 -0.18750607 9.625 -0.25 C10.98044922 -0.30027344 10.98044922 -0.30027344 12.36328125 -0.3515625 C18.04950587 -0.43457308 21.62441203 -0.04335431 26 4 C27.20417733 6.64608923 27.28003296 9.11625628 27 12 C25.625 14.25 25.625 14.25 24 16 C23.62307849 17.32167283 23.28341439 18.65517095 23 20 C22.76925781 19.31292969 22.53851563 18.62585938 22.30078125 17.91796875 C20.39630424 12.45441232 20.39630424 12.45441232 16.875 8 C12.6671884 6.53641336 8.38946495 5.7244748 4 5 C4.99 3.68 5.98 2.36 7 1 C4.69 1 2.38 1 0 1 C0 0.67 0 0.34 0 0 Z " fill="#2B1839" transform="translate(367,327)"/>
<path d="M0 0 C0.87840996 3.09720845 0.99435406 4.90645403 0 8 C1.32 7.34 2.64 6.68 4 6 C6.74515677 8.38333095 7.89080018 10.68909319 9.1875 14.0625 C9.53167969 14.94035156 9.87585938 15.81820313 10.23046875 16.72265625 C11 19 11 19 11 21 C7.37 21 3.74 21 0 21 C-0.33 20.01 -0.66 19.02 -1 18 C-2.65 18 -4.3 18 -6 18 C-6.28875 18.78375 -6.5775 19.5675 -6.875 20.375 C-8 23 -8 23 -10 25 C-9.41451192 21.36482678 -8.4181915 18.55419771 -6.6875 15.3125 C-4.109487 10.32884114 -1.99575748 5.24025707 0 0 Z M5 11 C3.515 14.96 3.515 14.96 2 19 C4.31 19 6.62 19 9 19 C8.01 16.36 7.02 13.72 6 11 C5.67 11 5.34 11 5 11 Z " fill="#5C4F67" transform="translate(297,327)"/>
<path d="M0 0 C0.33 0 0.66 0 1 0 C1.02725341 1.7290774 1.04650987 3.45828176 1.0625 5.1875 C1.07410156 6.15042969 1.08570313 7.11335938 1.09765625 8.10546875 C1 11 1 11 0.52781677 13.2401123 C-1.88207239 25.84112045 -1.1967599 39.37040008 -1.31640625 52.15625 C-1.33703905 54.03910715 -1.35803684 55.92196033 -1.37937927 57.80480957 C-1.43394825 62.70364112 -1.48363818 67.60250978 -1.53222656 72.50140381 C-1.58292499 77.52310394 -1.6383558 82.54475175 -1.69335938 87.56640625 C-1.80014072 97.37755922 -1.90175512 107.18875809 -2 117 C-2.33 117 -2.66 117 -3 117 C-3.04644658 103.76046076 -3.08193172 90.52094107 -3.10362434 77.28133678 C-3.11403842 71.13292235 -3.12815413 64.98456388 -3.15087891 58.83618164 C-3.17269211 52.89691433 -3.18458648 46.95770067 -3.18975449 41.01839638 C-3.19343505 38.75832589 -3.2006221 36.49825817 -3.21146011 34.23821068 C-3.22608772 31.06002957 -3.22797325 27.88206706 -3.22705078 24.70385742 C-3.23424133 23.78027939 -3.24143188 22.85670135 -3.24884033 21.90513611 C-3.22552668 14.42785905 -2.37273397 7.11820192 0 0 Z " fill="#8F72EA" transform="translate(152,48)"/>
<path d="M0 0 C2.97 0.495 2.97 0.495 6 1 C4.90931332 4.77545388 4.0916909 7.47043472 1 10 C0.15695313 9.50886719 0.15695313 9.50886719 -0.703125 9.0078125 C-3.26859964 7.88214506 -4.96842277 7.7931889 -7.75 7.875 C-8.94882813 7.90207031 -8.94882813 7.90207031 -10.171875 7.9296875 C-11.07679688 7.96449219 -11.07679688 7.96449219 -12 8 C-12.33 8.66 -12.66 9.32 -13 10 C-12.32453125 10.19335938 -11.6490625 10.38671875 -10.953125 10.5859375 C-10.06109375 10.84632813 -9.1690625 11.10671875 -8.25 11.375 C-7.36828125 11.63023437 -6.4865625 11.88546875 -5.578125 12.1484375 C-3.23919428 12.9209934 -1.16557438 13.83625676 1 15 C-1 16 -1 16 -4.25 15 C-8.06866228 13.98169006 -10.21556703 14.07696757 -14 15 C-13.24849977 18.27773504 -13.24849977 18.27773504 -10 20 C-15.27405053 19.58634898 -18.17729898 18.71026864 -22 15 C-23.52491998 11.95016004 -23.23562548 9.3576631 -23 6 C-22.01 5.01 -21.02 4.02 -20 3 C-20.33 6.3 -20.66 9.6 -21 13 C-17.2534959 11.90011894 -17.2534959 11.90011894 -14.875 9 C-14.58625 8.34 -14.2975 7.68 -14 7 C-10.60459753 4.73639835 -9.51717937 4.80335212 -5.5625 4.9375 C-2.14840484 5.04433563 0.72165702 4.99977836 4 4 C3.04134491 1.66924071 3.04134491 1.66924071 0 0 Z " fill="#908598" transform="translate(160,327)"/>
<path d="M0 0 C0.66 0 1.32 0 2 0 C2.70226141 1.24176695 3.38629109 2.49385599 4.0625 3.75 C4.44535156 4.44609375 4.82820313 5.1421875 5.22265625 5.859375 C6.14567339 8.40115083 5.92146232 9.4973921 5 12 C4.33333333 13.33333333 3.66666667 14.66666667 3 16 C3 16.66 3 17.32 3 18 C-1.95 18 -6.9 18 -12 18 C-12.33 16.02 -12.66 14.04 -13 12 C-8.71 12.33 -4.42 12.66 0 13 C-0.515625 11.9275 -1.03125 10.855 -1.5625 9.75 C-2.63240282 7.28522388 -3.03572782 6.27867697 -2.6875 3.5625 C-2.460625 3.046875 -2.23375 2.53125 -2 2 C-1.34 2 -0.68 2 0 2 C0 1.34 0 0.68 0 0 Z " fill="#200E2D" transform="translate(191,336)"/>
<path d="M0 0 C1.91385532 2.87078299 2.96432952 5.33411656 4.125 8.5625 C4.47820312 9.53316406 4.83140625 10.50382812 5.1953125 11.50390625 C6 14 6 14 6 16 C4.35 16.33 2.7 16.66 1 17 C1 16.34 1 15.68 1 15 C0.34 15 -0.32 15 -1 15 C-0.67 16.65 -0.34 18.3 0 20 C-3.63 20 -7.26 20 -11 20 C-9.32819664 14.74576086 -7.62305301 9.87138415 -5 5 C-1.125 6.875 -1.125 6.875 0 8 C0.04789131 6.83337814 0.04789131 6.83337814 -0.5625 5.125 C-1 3 -1 3 0 0 Z M-6 10 C-8.2013866 13.80427492 -8.2013866 13.80427492 -9 18 C-6.69 18 -4.38 18 -2 18 C-3.26974972 13.58477891 -3.26974972 13.58477891 -6 10 Z " fill="#584963" transform="translate(345,328)"/>
<path d="M0 0 C2.51681526 0.41946921 4.62663215 0.79464768 6.875 2.03125 C9.34819824 3.15873743 11.04866023 3.20445117 13.75 3.125 C14.94882813 3.09792969 14.94882813 3.09792969 16.171875 3.0703125 C17.07679688 3.03550781 17.07679688 3.03550781 18 3 C18.33 2.01 18.66 1.02 19 0 C19 1.32 19 2.64 19 4 C15.5647952 6.29013653 14.014669 6.17842973 10 6 C9.40929986 7.94603274 9.40929986 7.94603274 9 10 C10.49743119 11.49743119 11.98824239 11.33202693 14.0625 11.5625 C15.361875 11.706875 16.66125 11.85125 18 12 C18 12.33 18 12.66 18 13 C11.22506358 13.43709267 4.75814022 12.98728361 -1 9 C-2.00821853 5.99879135 -2.25983123 4.64091704 -1.0625 1.6875 C-0.711875 1.130625 -0.36125 0.57375 0 0 Z " fill="#91889A" transform="translate(138,350)"/>
<path d="M0 0 C0.66 0.33 1.32 0.66 2 1 C3.28710387 8.13757599 2.78954303 14.82123184 2 22 C-0.31 22 -2.62 22 -5 22 C-5.33 17.38 -5.66 12.76 -6 8 C-4.68 7.34 -3.36 6.68 -2 6 C-0.70768358 2.95800528 -0.70768358 2.95800528 0 0 Z " fill="#200E2C" transform="translate(434,339)"/>
<path d="M0 0 C1.39456452 0.00667256 2.78911118 0.01863093 4.18359375 0.03515625 C4.89451172 0.03966797 5.60542969 0.04417969 6.33789062 0.04882812 C8.09899388 0.06064761 9.86005411 0.07858362 11.62109375 0.09765625 C11.66351098 2.430604 11.66202312 4.76468192 11.62109375 7.09765625 C10.62109375 8.09765625 10.62109375 8.09765625 7.49609375 8.23046875 C6.21734375 8.22789062 4.93859375 8.2253125 3.62109375 8.22265625 C2.34234375 8.22523438 1.06359375 8.2278125 -0.25390625 8.23046875 C-3.37890625 8.09765625 -3.37890625 8.09765625 -4.37890625 7.09765625 C-4.50390625 4.09765625 -4.50390625 4.09765625 -4.37890625 1.09765625 C-3.37890625 0.09765625 -3.37890625 0.09765625 0 0 Z " fill="#887D90" transform="translate(403.37890625,342.90234375)"/>
<path d="M0 0 C1.62463842 -0.05395478 3.24978541 -0.09277195 4.875 -0.125 C5.77992188 -0.14820313 6.68484375 -0.17140625 7.6171875 -0.1953125 C10 0 10 0 12 2 C13.36763024 5.62019769 14.32795196 9.19172777 15 13 C14.34 12.67 13.68 12.34 13 12 C13 11.34 13 10.68 13 10 C12.34 10 11.68 10 11 10 C11 10.66 11 11.32 11 12 C10.01 12.495 10.01 12.495 9 13 C9.33 15.97 9.66 18.94 10 22 C6.7 22 3.4 22 0 22 C0.99 18.535 0.99 18.535 2 15 C2.33 15.99 2.66 16.98 3 18 C2.67 18.66 2.34 19.32 2 20 C3.98 20 5.96 20 8 20 C7.39816251 17.97954558 6.72693904 15.97888961 6 14 C5.34 13.67 4.68 13.34 4 13 C4.57634139 8.24518354 6.55068521 5.02951788 9 1 C6.36 1 3.72 1 1 1 C0.34 2.32 -0.32 3.64 -1 5 C-0.67 3.35 -0.34 1.7 0 0 Z " fill="#685B71" transform="translate(180,326)"/>
<path d="M0 0 C8.37303371 -0.48539326 8.37303371 -0.48539326 10.9375 1.5 C12.40161585 4.94497847 13.20691021 8.33958558 14 12 C11.525 11.01 11.525 11.01 9 10 C8.01 10.99 7.02 11.98 6 13 C5.67 11.35 5.34 9.7 5 8 C4.401875 8.165 3.80375 8.33 3.1875 8.5 C1 9 1 9 -2 9 C-1.34 6.03 -0.68 3.06 0 0 Z " fill="#2A1A39" transform="translate(298,326)"/>
<path d="M0 0 C0.66 0 1.32 0 2 0 C2 7.26 2 14.52 2 22 C0.02 22 -1.96 22 -4 22 C-4.10871967 19.45716766 -4.18762401 16.91904912 -4.25 14.375 C-4.28351563 13.66214844 -4.31703125 12.94929688 -4.3515625 12.21484375 C-4.44665403 7.03235548 -3.47880617 4.08437613 0 0 Z " fill="#210F2D" transform="translate(212,339)"/>
<path d="M0 0 C0.99 0.495 0.99 0.495 2 1 C1.01 1.495 1.01 1.495 0 2 C0 1.34 0 0.68 0 0 Z M0 -7 C0.97920084 -3.58367707 0.80093488 -1.47071781 0 2 C0 2.99 0 3.98 0 5 C-0.9793879 6.02019573 -1.97895449 7.02149805 -3 8 C-3 8.66 -3 9.32 -3 10 C-3.97753644 11.02196992 -4.9805881 12.01979625 -6 13 C-6.66 13.99 -7.32 14.98 -8 16 C-8.66 15.01 -9.32 14.02 -10 13 C-10.33 13.99 -10.66 14.98 -11 16 C-11.66 16 -12.32 16 -13 16 C-13.66 17.32 -14.32 18.64 -15 20 C-16.03544174 18.09118566 -17.05290085 16.17260796 -18.0625 14.25 C-18.63097656 13.18265625 -19.19945312 12.1153125 -19.78515625 11.015625 C-21.01044806 7.97406463 -21.25348607 6.95106435 -20 4 C-19.54625 5.134375 -19.0925 6.26875 -18.625 7.4375 C-17.42904194 11.04721692 -17.42904194 11.04721692 -15 12 C-14.67 11.01 -14.34 10.02 -14 9 C-13.34 9 -12.68 9 -12 9 C-11.34 8.01 -10.68 7.02 -10 6 C-9.34 7.65 -8.68 9.3 -8 11 C-4.94253032 5.10258813 -2.20566671 -0.73126302 0 -7 Z " fill="#86798C" transform="translate(276,336)"/>
<path d="M0 0 C0.66 0.33 1.32 0.66 2 1 C2 1.66 2 2.32 2 3 C2.66 3 3.32 3 4 3 C4.33 2.34 4.66 1.68 5 1 C5 1.66 5 2.32 5 3 C10.28 3 15.56 3 21 3 C21 3.33 21 3.66 21 4 C16.05 4 11.1 4 6 4 C5.67 6.31 5.34 8.62 5 11 C4 12 4 12 1.71484375 12.09765625 C0.34005859 12.08025391 0.34005859 12.08025391 -1.0625 12.0625 C-1.98160156 12.05347656 -2.90070313 12.04445313 -3.84765625 12.03515625 C-4.55792969 12.02355469 -5.26820313 12.01195312 -6 12 C-4.68139111 7.38486888 -2.78644563 3.90102388 0 0 Z " fill="#5A4D63" transform="translate(288,350)"/>
<path d="M0 0 C2.625 1.5625 2.625 1.5625 4.625 3.5625 C4.25 6.1875 4.25 6.1875 3.625 8.5625 C1.975 8.5625 0.325 8.5625 -1.375 8.5625 C-1.375 7.2425 -1.375 5.9225 -1.375 4.5625 C-2.6125 4.60375 -3.85 4.645 -5.125 4.6875 C-8.39137962 4.69908291 -10.5896947 4.4193702 -13.375 2.5625 C-13.045 1.9025 -12.715 1.2425 -12.375 0.5625 C-13.365 0.2325 -14.355 -0.0975 -15.375 -0.4375 C-10.51581992 -3.87941922 -5.03317586 -2.14376009 0 0 Z " fill="#230F2F" transform="translate(159.375,342.4375)"/>
<path d="M0 0 C1.37478516 0.01740234 1.37478516 0.01740234 2.77734375 0.03515625 C3.69644531 0.04417969 4.61554688 0.05320312 5.5625 0.0625 C6.27277344 0.07410156 6.98304688 0.08570313 7.71484375 0.09765625 C7.11846042 1.37216072 6.51236959 2.64212502 5.90234375 3.91015625 C5.39767578 4.97169922 5.39767578 4.97169922 4.8828125 6.0546875 C3.69932236 8.12480571 2.44603977 9.47696211 0.71484375 11.09765625 C-0.30316201 12.41729334 -1.3076399 13.74775271 -2.28515625 15.09765625 C-2.28515625 14.43765625 -2.28515625 13.77765625 -2.28515625 13.09765625 C-2.94515625 13.09765625 -3.60515625 13.09765625 -4.28515625 13.09765625 C-5.47265625 11.59765625 -5.47265625 11.59765625 -6.28515625 9.09765625 C-4.06719097 0.17381158 -4.06719097 0.17381158 0 0 Z " fill="#62566A" transform="translate(442.28515625,325.90234375)"/>
<path d="M0 0 C2.64 0 5.28 0 8 0 C7.52819393 2.5477528 6.87337093 4.20577224 5.5 6.4375 C3.98228219 9.03026793 3.42152861 11.04929976 3 14 C2.34 14 1.68 14 1 14 C0.67 14.66 0.34 15.32 0 16 C-1.51171875 14.77734375 -1.51171875 14.77734375 -3 13 C-3.14453125 10.87890625 -3.14453125 10.87890625 -2.8125 8.5625 C-2.71582031 7.80066406 -2.61914062 7.03882813 -2.51953125 6.25390625 C-1.98253244 3.92421968 -1.15422182 2.08519909 0 0 Z " fill="#210F2E" transform="translate(181,327)"/>
<path d="M0 0 C2.64 0.33 5.28 0.66 8 1 C8.33 2.98 8.66 4.96 9 7 C9.99 7.33 10.98 7.66 12 8 C12.33 11.96 12.66 15.92 13 20 C11.35 20.33 9.7 20.66 8 21 C7.29848848 22.3153341 6.63474075 23.65117592 6 25 C2.15094544 28.36792274 -1.64067877 28.49586467 -6.55078125 28.37109375 C-10.22949341 27.81371312 -12.1805861 26.37424328 -15 24 C-14.67 23.34 -14.34 22.68 -14 22 C-12.7625 22.99 -12.7625 22.99 -11.5 24 C-7.73436351 26.48674108 -4.40370178 26.87019257 0 26 C4.36859523 23.77448922 7.05621805 21.53549123 9 17 C9.70429706 12.37176219 8.60585713 9.41246695 6.22265625 5.54296875 C4.49957677 3.36847547 2.45640151 2.22820075 0 1 C0 0.67 0 0.34 0 0 Z " fill="#CBBBF4" transform="translate(239,116)"/>
<path d="M0 0 C-0.93972656 0.59748047 -0.93972656 0.59748047 -1.8984375 1.20703125 C-2.71570313 1.73683594 -3.53296875 2.26664063 -4.375 2.8125 C-5.18710938 3.33457031 -5.99921875 3.85664063 -6.8359375 4.39453125 C-9.23350241 5.98437197 -9.23350241 5.98437197 -11 9 C-11.78375 9.309375 -12.5675 9.61875 -13.375 9.9375 C-16.13053736 10.8541818 -16.13053736 10.8541818 -18.125 13.125 C-18.74375 13.74375 -19.3625 14.3625 -20 15 C-20.99 15 -21.98 15 -23 15 C-23 15.99 -23 16.98 -23 18 C-24.98 18.99 -26.96 19.98 -29 21 C-26.78612631 16.0187842 -23.63117263 11.933076 -19 9 C-18.34 9 -17.68 9 -17 9 C-17 8.34 -17 7.68 -17 7 C-5.78313253 -1.92771084 -5.78313253 -1.92771084 0 0 Z " fill="#B8A3F1" transform="translate(192,7)"/>
<path d="M0 0 C0.556875 0.226875 1.11375 0.45375 1.6875 0.6875 C0.22703488 7.25959302 0.22703488 7.25959302 -2.125 9.125 C-4.60193001 9.76192486 -6.76503973 9.82902557 -9.3125 9.6875 C-9.3125 9.0275 -9.3125 8.3675 -9.3125 7.6875 C-9.9725 7.6875 -10.6325 7.6875 -11.3125 7.6875 C-11.3125 7.0275 -11.3125 6.3675 -11.3125 5.6875 C-12.9625 5.6875 -14.6125 5.6875 -16.3125 5.6875 C-16.6425 6.6775 -16.9725 7.6675 -17.3125 8.6875 C-18.3025 8.6875 -19.2925 8.6875 -20.3125 8.6875 C-19.4375 4.8125 -19.4375 4.8125 -18.3125 3.6875 C-16.56519861 3.52918746 -14.81419941 3.41085745 -13.0625 3.3125 C-8.4276414 2.95274383 -4.10295081 -0.55445281 0 0 Z " fill="#291536" transform="translate(388.3125,351.3125)"/>
<path d="M0 0 C0.66 0.33 1.32 0.66 2 1 C2 1.66 2 2.32 2 3 C3.32 2.67 4.64 2.34 6 2 C6.66 3.65 7.32 5.3 8 7 C7.34 7 6.68 7 6 7 C6 8.98 6 10.96 6 13 C4.02 13 2.04 13 0 13 C-2.41685712 8.77050005 -3.34833144 5.87664009 -3 1 C-2.01 0.67 -1.02 0.34 0 0 Z " fill="#23102F" transform="translate(224,344)"/>
<path d="M0 0 C3.40038985 -0.35042185 6.6145931 -0.5412406 10 0 C12.625 3 12.625 3 14 6 C13.67 6.66 13.34 7.32 13 8 C12.34 7.67 11.68 7.34 11 7 C10.67 7.66 10.34 8.32 10 9 C9.01 9 8.02 9 7 9 C7.33 10.65 7.66 12.3 8 14 C5.50447597 11.72402354 3.93377014 9.39278822 2.3125 6.4375 C1.87550781 5.65246094 1.43851562 4.86742187 0.98828125 4.05859375 C0 2 0 2 0 0 Z " fill="#928798" transform="translate(414,326)"/>
<path d="M0 0 C0.99 0.33 1.98 0.66 3 1 C3.66 2.65 4.32 4.3 5 6 C9.29 6.33 13.58 6.66 18 7 C18 7.99 18 8.98 18 10 C17.67 9.67 17.34 9.34 17 9 C14.47403741 8.76346477 11.96892793 8.57826308 9.4375 8.4375 C8.72658203 8.39431641 8.01566406 8.35113281 7.28320312 8.30664062 C5.52238088 8.20028223 3.7612168 8.09961154 2 8 C1.34 10.31 0.68 12.62 0 15 C-2.97 15 -5.94 15 -9 15 C-9.33 14.34 -9.66 13.68 -10 13 C-9.06553465 10.96855359 -8.06775224 8.96466413 -7 7 C-6 9 -5 11 -4 13 C-3.01 13 -2.02 13 -1 13 C-1.01160156 12.14535156 -1.02320313 11.29070312 -1.03515625 10.41015625 C-1.04417969 9.30542969 -1.05320313 8.20070313 -1.0625 7.0625 C-1.07410156 5.96035156 -1.08570313 4.85820312 -1.09765625 3.72265625 C-1 1 -1 1 0 0 Z " fill="#685974" transform="translate(175,347)"/>
<path d="M0 0 C4.95 0.33 9.9 0.66 15 1 C15 1.66 15 2.32 15 3 C16.10923828 3.0093457 17.21847656 3.01869141 18.36132812 3.02832031 C22.50658206 3.06842102 26.6511094 3.13423398 30.79589844 3.20751953 C32.5842144 3.23561334 34.37265186 3.25688514 36.16113281 3.27099609 C38.74346602 3.29258751 41.32435619 3.33931709 43.90625 3.390625 C44.69616333 3.39185364 45.48607666 3.39308228 46.29992676 3.39434814 C52.13689685 3.5457549 55.93147773 5.10225918 61 8 C59 9 59 9 56.3125 8.125 C55.219375 7.75375 54.12625 7.3825 53 7 C47.68288235 6.01011108 42.45162954 5.84351056 37.05078125 5.70922852 C27.78671247 5.47722331 18.64991886 5.09874977 9.5 3.5625 C8.38951294 3.37905029 8.38951294 3.37905029 7.2565918 3.19189453 C2.27377081 2.27377081 2.27377081 2.27377081 0 0 Z " fill="#E1D4FB" transform="translate(196,241)"/>
<path d="M0 0 C-1.75 3.875 -1.75 3.875 -4 5 C-4.2475 5.825 -4.495 6.65 -4.75 7.5 C-5.1625 8.325 -5.575 9.15 -6 10 C-9.125 10.8125 -9.125 10.8125 -12 11 C-12.25 3.375 -12.25 3.375 -10 0 C-6.15448132 -0.83902226 -3.76081574 -1.25360525 0 0 Z " fill="#1C0C28" transform="translate(151,329)"/>
<path d="M0 0 C0.94616328 3.42984189 1 6.44175575 1 10 C1.20625 10.5775 1.4125 11.155 1.625 11.75 C2.39690699 16.38144195 0.24126302 20.9977446 -2 25 C-2.33 25 -2.66 25 -3 25 C-3.33 22.69 -3.66 20.38 -4 18 C-3.34 17.67 -2.68 17.34 -2 17 C-2.556875 16.525625 -3.11375 16.05125 -3.6875 15.5625 C-5 13 -5 13 -4.6015625 10.87109375 C-3.34319334 7.08975671 -1.82693655 3.54119861 0 0 Z " fill="#44344E" transform="translate(233,332)"/>
<path d="M0 0 C0.66 0.33 1.32 0.66 2 1 C2.66 1 3.32 1 4 1 C3.814375 1.598125 3.62875 2.19625 3.4375 2.8125 C2.77906313 5.16408762 2.77906313 5.16408762 4 8 C3.22265625 10.04296875 3.22265625 10.04296875 2.0625 12.1875 C1.68222656 12.90292969 1.30195313 13.61835938 0.91015625 14.35546875 C0.60980469 14.89816406 0.30945313 15.44085938 0 16 C-1.65 15.67 -3.3 15.34 -5 15 C-4.34 14.67 -3.68 14.34 -3 14 C-3.309375 12.700625 -3.309375 12.700625 -3.625 11.375 C-4.04047622 7.63571398 -3.39666276 5.45057859 -2 2 C-1.34 2 -0.68 2 0 2 C0 1.34 0 0.68 0 0 Z M-3 9 C-2.67 9.66 -2.34 10.32 -2 11 C-1.67 10.34 -1.34 9.68 -1 9 C-1.66 9 -2.32 9 -3 9 Z " fill="#1C0B27" transform="translate(279,327)"/>
<path d="M0 0 C9.12700589 8.36642207 13.20076756 19.81170527 14 32 C13.67 32 13.34 32 13 32 C12.34 30.02 11.68 28.04 11 26 C10.67 26 10.34 26 10 26 C9.67 24.35 9.34 22.7 9 21 C8.67 21 8.34 21 8 21 C7.84144531 20.38253906 7.68289063 19.76507813 7.51953125 19.12890625 C5.9769348 13.52953681 3.9971634 8.78292479 0.98828125 3.8125 C0 2 0 2 0 0 Z " fill="#BCABF0" transform="translate(421,26)"/>
<path d="M0 0 C1 3 1 3 0 6 C0.33 6.99 0.66 7.98 1 9 C1.99 9 2.98 9 4 9 C5.71711243 6.55503957 5.71711243 6.55503957 7 4 C8 7 8 7 6.56640625 9.91796875 C5.90511719 10.99691406 5.24382812 12.07585937 4.5625 13.1875 C3.90378906 14.27417969 3.24507813 15.36085938 2.56640625 16.48046875 C2.04949219 17.31191406 1.53257812 18.14335937 1 19 C-1.12508244 15.81237635 -1.5020163 13.73487777 -2 10 C-3.32 10.33 -4.64 10.66 -6 11 C-6 10.01 -6 9.02 -6 8 C-5.34 8.33 -4.68 8.66 -4 9 C-3.71125 8.2575 -3.4225 7.515 -3.125 6.75 C-2.17697356 4.43260203 -1.15154089 2.22082885 0 0 Z " fill="#8F8495" transform="translate(437,330)"/>
<path d="M0 0 C8.45464136 -0.44303798 16.12639828 -0.07826889 24.375 1.875 C25.48959595 2.13555176 25.48959595 2.13555176 26.62670898 2.40136719 C28.4381056 2.86052875 30.22303329 3.42174717 32 4 C32.495 4.99 32.495 4.99 33 6 C21.73797454 5.58897717 10.98599853 3.36836732 0 1 C0 0.67 0 0.34 0 0 Z " fill="#C8B6F2" transform="translate(360,0)"/>
<path d="M0 0 C0.33 0 0.66 0 1 0 C1.01981934 0.55985596 1.03963867 1.11971191 1.06005859 1.6965332 C1.15537783 4.23565854 1.26502753 6.77396888 1.375 9.3125 C1.4059375 10.19357422 1.436875 11.07464844 1.46875 11.98242188 C1.52675781 13.25375977 1.52675781 13.25375977 1.5859375 14.55078125 C1.6173584 15.33106689 1.6487793 16.11135254 1.68115234 16.9152832 C1.89587889 19.30155768 1.89587889 19.30155768 4 22 C4.42547177 23.90210907 4.77145414 25.82273836 5.0625 27.75 C5.22621094 28.8121875 5.38992187 29.874375 5.55859375 30.96875 C5.70425781 31.9690625 5.84992188 32.969375 6 34 C6.11472656 34.7734375 6.22945312 35.546875 6.34765625 36.34375 C6.57330135 37.89466281 6.78824496 39.44712973 7 41 C4.13807457 39.56903729 4.00288641 37.8483598 2.9375 34.875 C2.59589844 33.94429687 2.25429687 33.01359375 1.90234375 32.0546875 C-0.20208144 24.93061607 -0.12472842 17.91981379 -0.0625 10.5625 C-0.05798828 9.54478516 -0.05347656 8.52707031 -0.04882812 7.47851562 C-0.03712437 4.98561491 -0.02072848 2.49283926 0 0 Z " fill="#B39EEC" transform="translate(149,165)"/>
<path d="M0 0 C5.28948291 4.88375553 7.86472143 12.25701506 10 19 C9.67 20.32 9.34 21.64 9 23 C6.03 22.67 3.06 22.34 0 22 C-0.33 20.35 -0.66 18.7 -1 17 C-0.34 16.67 0.32 16.34 1 16 C1 17.65 1 19.3 1 21 C4.465 20.505 4.465 20.505 8 20 C7.27169035 16.80659893 7.27169035 16.80659893 4.4375 15.25 C2 13 2 13 1.8125 9.625 C1.874375 8.42875 1.93625 7.2325 2 6 C1.08885464 2.67813829 1.08885464 2.67813829 0 0 Z " fill="#9D94A3" transform="translate(195,340)"/>
<path d="M0 0 C2.97 0 5.94 0 9 0 C6.568102 9.727592 2.26104673 18.95207525 -2 28 C-3.59664444 23.21006669 -0.55354376 19.23812661 1.55078125 14.89257812 C1.87433594 14.19712891 2.19789063 13.50167969 2.53125 12.78515625 C2.83611328 12.15488525 3.14097656 11.52461426 3.45507812 10.87524414 C4.1225807 8.57816201 3.65521416 7.26030752 3 5 C3.33 4.67 3.66 4.34 4 4 C3.01 3.01 2.02 2.02 1 1 C1 1.66 1 2.32 1 3 C0.34 3 -0.32 3 -1 3 C-0.67 2.01 -0.34 1.02 0 0 Z " fill="#9B92A0" transform="translate(278,326)"/>
<path d="M0 0 C0.66 0.33 1.32 0.66 2 1 C2.33 1.99 2.66 2.98 3 4 C3.66 3.34 4.32 2.68 5 2 C4.67 4.64 4.34 7.28 4 10 C-0.95 10 -5.9 10 -11 10 C-7 8 -7 8 -4.9375 7.8125 C-2.54433753 7.0584613 -2.54433753 7.0584613 -1.25 3.4375 C-0.8375 2.303125 -0.425 1.16875 0 0 Z " fill="#20102A" transform="translate(325,351)"/>
<path d="M0 0 C2.64 0 5.28 0 8 0 C8.68707555 2.49064888 9 4.37886292 9 7 C9.66 7.33 10.32 7.66 11 8 C10.67 8.66 10.34 9.32 10 10 C9.01 10.33 8.02 10.66 7 11 C7 10.01 7 9.02 7 8 C2.87851657 6.17339803 2.87851657 6.17339803 -1.375 6.875 C-1.91125 7.24625 -2.4475 7.6175 -3 8 C-3 7.01 -3 6.02 -3 5 C-1 3.3125 -1 3.3125 1 2 C0.67 1.34 0.34 0.68 0 0 Z " fill="#200E2E" transform="translate(336,327)"/>
<path d="M0 0 C10.88028169 -0.57042254 10.88028169 -0.57042254 15 3 C15 3.66 15 4.32 15 5 C15.66 5 16.32 5 17 5 C18.00496852 8.01490557 18.10335303 10.04181692 18.0625 13.1875 C18.05347656 14.08855469 18.04445313 14.98960937 18.03515625 15.91796875 C18.02355469 16.60503906 18.01195312 17.29210937 18 18 C17.34 18.33 16.68 18.66 16 19 C15.98582031 18.41992188 15.97164063 17.83984375 15.95703125 17.2421875 C15.58336611 11.12215853 14.39479412 8.29015616 10 4 C6.55549263 1.70366176 4.06187717 1.45983515 0 1 C0 0.67 0 0.34 0 0 Z " fill="#B2A0E9" transform="translate(290,115)"/>
<path d="M0 0 C2.77141717 -0.08089542 5.54047819 -0.14044062 8.3125 -0.1875 C9.09818359 -0.21263672 9.88386719 -0.23777344 10.69335938 -0.26367188 C11.45068359 -0.27333984 12.20800781 -0.28300781 12.98828125 -0.29296875 C14.03302612 -0.31653442 14.03302612 -0.31653442 15.09887695 -0.34057617 C17.54489783 0.09761557 18.42702086 1.13437358 20 3 C18.35 3.33 16.7 3.66 15 4 C15 4.66 15 5.32 15 6 C11.37 5.67 7.74 5.34 4 5 C4.99 3.68 5.98 2.36 7 1 C4.69 1 2.38 1 0 1 C0 0.67 0 0.34 0 0 Z " fill="#1C0C2A" transform="translate(367,327)"/>
<path d="M0 0 C0.66 0.33 1.32 0.66 2 1 C-7.21720993 7.11761721 -16.71198981 11.86830848 -28 11 C-27.34 10.01 -26.68 9.02 -26 8 C-22.91015625 7.48046875 -22.91015625 7.48046875 -19.0625 7.1875 C-12.45307393 6.55275936 -7.73894278 4.76013238 -2.07421875 1.14453125 C-1.38972656 0.76683594 -0.70523437 0.38914063 0 0 Z " fill="#D4C6F9" transform="translate(404,233)"/>
<path d="M0 0 C0.6875 2.75 0.6875 2.75 1 6 C-0.375 8.125 -0.375 8.125 -2 10 C-2.70514846 12.14733927 -2.70514846 12.14733927 -3 14 C-4.60202296 9.79468974 -5.10182249 6.48018958 -5 2 C-5.33 1.34 -5.66 0.68 -6 0 C-3 -1 -3 -1 0 0 Z " fill="#210E2C" transform="translate(393,333)"/>
<path d="M0 0 C2.97 0.495 2.97 0.495 6 1 C4.90931332 4.77545388 4.0916909 7.47043472 1 10 C0.44828125 9.67257812 -0.1034375 9.34515625 -0.671875 9.0078125 C-3.38780923 7.83212285 -5.30551759 7.79751362 -8.25 7.875 C-9.58804688 7.90207031 -9.58804688 7.90207031 -10.953125 7.9296875 C-11.62859375 7.95289063 -12.3040625 7.97609375 -13 8 C-13 7.34 -13 6.68 -13 6 C-8.60172028 5.29627524 -4.44507137 5 0 5 C2.26566343 4.56058477 2.26566343 4.56058477 4 4 C3.04134491 1.66924071 3.04134491 1.66924071 0 0 Z " fill="#ABA2B1" transform="translate(160,327)"/>
<path d="M0 0 C0 0.33 0 0.66 0 1 C-0.95519531 1.10957031 -1.91039062 1.21914063 -2.89453125 1.33203125 C-10.04849634 2.20933704 -16.75217453 3.344769 -23.6796875 5.40234375 C-26.5024336 6.12941471 -29.09957201 6.23516984 -32 6 C-24.84895383 -1.15104617 -9.38292635 -0.15523224 0 0 Z " fill="#EADCFD" transform="translate(224,0)"/>
<path d="M0 0 C3.3 0 6.6 0 10 0 C9.67 0.66 9.34 1.32 9 2 C8.34 2 7.68 2 7 2 C7.33 2.99 7.66 3.98 8 5 C6.68 6.32 5.36 7.64 4 9 C4.99 9 5.98 9 7 9 C6.67 10.65 6.34 12.3 6 14 C3.2079853 12.60399265 2.99837067 10.99583616 1.875 8.125 C1.34519531 6.79855469 1.34519531 6.79855469 0.8046875 5.4453125 C0 3 0 3 0 0 Z " fill="#766A7D" transform="translate(249,326)"/>
<path d="M0 0 C0.33 0 0.66 0 1 0 C1.21057373 6.46929301 0.92442042 11.77393394 -1 18 C-1.44630792 21.32523922 -1.74425617 24.65513988 -2 28 C-2.33 28 -2.66 28 -3 28 C-3.2531155 18.36754904 -3.07025703 9.2107711 0 0 Z " fill="#BCA8EF" transform="translate(152,48)"/>
<path d="M0 0 C0.99 0 1.98 0 3 0 C3.19412181 1.47831221 3.38012131 2.95769316 3.5625 4.4375 C3.66691406 5.26121094 3.77132812 6.08492188 3.87890625 6.93359375 C3.91886719 7.61550781 3.95882812 8.29742187 4 9 C3 10 3 10 -0.5625 10.0625 C-1.696875 10.041875 -2.83125 10.02125 -4 10 C-3.01 9.34 -2.02 8.68 -1 8 C-1.20625 7.236875 -1.4125 6.47375 -1.625 5.6875 C-2 3 -2 3 0 0 Z " fill="#1E0E2C" transform="translate(171,351)"/>
<path d="M0 0 C3 1 3 1 5 3 C5.125 6.625 5.125 6.625 5 10 C4.34 10 3.68 10 3 10 C2.67 10.66 2.34 11.32 2 12 C0.48046875 10.79296875 0.48046875 10.79296875 -1 9 C-1.07421875 6.73828125 -1.07421875 6.73828125 -0.6875 4.3125 C-0.56761719 3.50425781 -0.44773438 2.69601562 -0.32421875 1.86328125 C-0.21722656 1.24839844 -0.11023438 0.63351562 0 0 Z " fill="#2D1D39" transform="translate(179,331)"/>
<path d="M0 0 C0.99 0.33 1.98 0.66 3 1 C2.29445932 4.66881155 0.72264494 7.70450534 -1 11 C-1.33 10.34 -1.66 9.68 -2 9 C-2.66 9 -3.32 9 -4 9 C-4.66 7.68 -5.32 6.36 -6 5 C-5.01 4.67 -4.02 4.34 -3 4 C-2.67 3.01 -2.34 2.02 -2 1 C-1.34 0.67 -0.68 0.34 0 0 Z " fill="#271433" transform="translate(442,330)"/>
<path d="M0 0 C2.64 0 5.28 0 8 0 C8.99 2.31 9.98 4.62 11 7 C9 9 9 9 6 10 C6 9.34 6 8.68 6 8 C5.01 8 4.02 8 3 8 C3.33 7.01 3.66 6.02 4 5 C4.66 4.67 5.32 4.34 6 4 C5.67 3.34 5.34 2.68 5 2 C2.47266765 1.34444881 2.47266765 1.34444881 0 1 C0 0.67 0 0.34 0 0 Z " fill="#210F2B" transform="translate(250,327)"/>
<path d="M0 0 C2.80561393 1.40280696 3.00680507 3.0509005 4.125 5.9375 C4.47820312 6.83339844 4.83140625 7.72929687 5.1953125 8.65234375 C6 11 6 11 6 13 C2.37 13 -1.26 13 -5 13 C-4.34 11.02 -3.68 9.04 -3 7 C-2.67 7.99 -2.34 8.98 -2 10 C-0.35 10 1.3 10 3 10 C2.525625 9.05125 2.05125 8.1025 1.5625 7.125 C0.70833333 5.41666667 -0.14583333 3.70833333 -1 2 C-0.67 1.34 -0.34 0.68 0 0 Z " fill="#E1DAE6" transform="translate(302,335)"/>
<path d="M0 0 C3.62343383 3.78813537 4.04524538 8.00589889 5 13 C1.7 13 -1.6 13 -5 13 C-4.34 10.69 -3.68 8.38 -3 6 C-2.67 6.99 -2.34 7.98 -2 9 C-2.33 9.66 -2.66 10.32 -3 11 C-1.02 11 0.96 11 3 11 C2.39816251 8.97954558 1.72693904 6.97888961 1 5 C0.34 4.67 -0.32 4.34 -1 4 C-0.67 2.68 -0.34 1.36 0 0 Z " fill="#DFD9E3" transform="translate(185,335)"/>
<path d="M0 0 C0.69609375 0.34804687 1.3921875 0.69609375 2.109375 1.0546875 C2.439375 2.0446875 2.769375 3.0346875 3.109375 4.0546875 C2.59375 3.8896875 2.078125 3.7246875 1.546875 3.5546875 C-3.69015142 2.48042567 -8.06868385 2.71677664 -12.890625 5.0546875 C-12.890625 1.0546875 -12.890625 1.0546875 -11.015625 -0.8828125 C-6.78426958 -2.32147334 -4.17481882 -1.29691117 0 0 Z " fill="#B19BF1" transform="translate(354.890625,113.9453125)"/>
<path d="M0 0 C0.66 0 1.32 0 2 0 C1.67 1.32 1.34 2.64 1 4 C2.32 3.34 3.64 2.68 5 2 C8 5.75 8 5.75 8 8 C5.36 8 2.72 8 0 8 C-0.38063221 5.6739143 -0.71269945 3.33944736 -1 1 C-0.67 0.67 -0.34 0.34 0 0 Z " fill="#1F122A" transform="translate(350,353)"/>
<path d="M0 0 C0 4.46673257 -2.02570252 8.05140504 -4 12 C-4.66 12 -5.32 12 -6 12 C-6.33 14.64 -6.66 17.28 -7 20 C-7.66 20 -8.32 20 -9 20 C-8.17520758 11.75207576 -4.8085213 6.49800176 0 0 Z " fill="#C5B5F5" transform="translate(162,28)"/>
<path d="M0 0 C-0.33 1.65 -0.66 3.3 -1 5 C-3.97 5 -6.94 5 -10 5 C-10 4.01 -10 3.02 -10 2 C-9.34 2 -8.68 2 -8 2 C-8 1.34 -8 0.68 -8 0 C-2.25 -1.125 -2.25 -1.125 0 0 Z " fill="#1C0C2C" transform="translate(156,356)"/>
<path d="M0 0 C1.30660357 4.29727397 0.6596762 7.60215865 0 12 C-0.804375 12.12375 -1.60875 12.2475 -2.4375 12.375 C-3.283125 12.58125 -4.12875 12.7875 -5 13 C-5.33 13.66 -5.66 14.32 -6 15 C-5.39644592 11.14974121 -4.23227397 8.13898841 -2.4375 4.6875 C-1.98246094 3.80449219 -1.52742187 2.92148437 -1.05859375 2.01171875 C-0.53458984 1.01591797 -0.53458984 1.01591797 0 0 Z " fill="#786C80" transform="translate(178,332)"/>
<path d="M0 0 C-0.66 0 -1.32 0 -2 0 C-2 0.66 -2 1.32 -2 2 C-1.34 2 -0.68 2 0 2 C0 2.66 0 3.32 0 4 C-5.28 4 -10.56 4 -16 4 C-16 3.67 -16 3.34 -16 3 C-12.92382812 2.70703125 -12.92382812 2.70703125 -9.84765625 2.4140625 C-9.23792969 2.27742188 -8.62820313 2.14078125 -8 2 C-7.67 1.34 -7.34 0.68 -7 0 C-3.86650268 -1.04449911 -3.01031744 -0.93423645 0 0 Z " fill="#170A21" transform="translate(379,357)"/>
<path d="M0 0 C3.80984844 2.77079887 4.06840752 6.62868145 5 11 C3.02 10.34 1.04 9.68 -1 9 C-1.625 6.1875 -1.625 6.1875 -2 3 C-1.34 2.01 -0.68 1.02 0 0 Z " fill="#574B61" transform="translate(307,327)"/>
<path d="M0 0 C0.97920084 3.41632293 0.80093488 5.52928219 0 9 C0 9.99 0 10.98 0 12 C-0.9793879 13.02019573 -1.97895449 14.02149805 -3 15 C-3 15.66 -3 16.32 -3 17 C-3.66 17 -4.32 17 -5 17 C-4.46246904 10.81839396 -2.45417612 5.673142 0 0 Z M0 7 C0.99 7.495 0.99 7.495 2 8 C1.01 8.495 1.01 8.495 0 9 C0 8.34 0 7.68 0 7 Z " fill="#706478" transform="translate(276,329)"/>
<path d="M0 0 C2.31 0 4.62 0 7 0 C7.66 1.32 8.32 2.64 9 4 C8.01 4.66 7.02 5.32 6 6 C3.375 5.375 3.375 5.375 1 4 C0.1875 1.875 0.1875 1.875 0 0 Z " fill="#22112E" transform="translate(416,327)"/>
<path d="M0 0 C1.5625 1.5625 1.5625 1.5625 3 4 C2.6875 7.75 2.6875 7.75 2 11 C2.99 11.66 3.98 12.32 5 13 C2.69 13 0.38 13 -2 13 C-1.649375 12.071875 -1.29875 11.14375 -0.9375 10.1875 C0.32382628 7.0197047 0.32382628 7.0197047 -1 4 C-0.5625 1.8125 -0.5625 1.8125 0 0 Z " fill="#51425B" transform="translate(218,328)"/>
<path d="M0 0 C2.82858266 3.36736031 4.4998253 6.87451958 6 11 C5.67 11.99 5.34 12.98 5 14 C4.34 13.01 3.68 12.02 3 11 C1.02 11.99 1.02 11.99 -1 13 C-1.33 12.01 -1.66 11.02 -2 10 C-1.2575 8.824375 -1.2575 8.824375 -0.5 7.625 C1.28964178 5.09131563 1.28964178 5.09131563 0.6875 2.1875 C0.460625 1.465625 0.23375 0.74375 0 0 Z " fill="#75697C" transform="translate(259,328)"/>
<path d="M0 0 C1.60379341 -0.05416188 3.20811406 -0.09286638 4.8125 -0.125 C5.70582031 -0.14820312 6.59914063 -0.17140625 7.51953125 -0.1953125 C10 0 10 0 13 2 C14.75 5 14.75 5 16 8 C15.67 8.66 15.34 9.32 15 10 C13.79557292 8.50260417 12.59114583 7.00520833 11.38671875 5.5078125 C8.00831687 1.83439524 4.75784303 1.53862374 0 1 C0 0.67 0 0.34 0 0 Z " fill="#D1C0F6" transform="translate(290,115)"/>
<path d="M0 0 C2.125 0.375 2.125 0.375 4 1 C3.34 3.31 2.68 5.62 2 8 C0.68 8 -0.64 8 -2 8 C-2.125 5.125 -2.125 5.125 -2 2 C-1.34 1.34 -0.68 0.68 0 0 Z " fill="#1F0C2E" transform="translate(386,351)"/>
<path d="M0 0 C1 2 2 4 3 6 C3.99 6 4.98 6 6 6 C6.66 5.34 7.32 4.68 8 4 C7.67 5.32 7.34 6.64 7 8 C4.03 8 1.06 8 -2 8 C-2.33 7.34 -2.66 6.68 -3 6 C-2.06553465 3.96855359 -1.06775224 1.96466413 0 0 Z " fill="#9D96A4" transform="translate(168,354)"/>
<path d="M0 0 C3.875 1.75 3.875 1.75 5 4 C5.06950541 5.54023996 5.08452357 7.08334988 5.0625 8.625 C5.05347656 9.44226563 5.04445312 10.25953125 5.03515625 11.1015625 C5.02355469 11.72804688 5.01195312 12.35453125 5 13 C4.01 13.495 4.01 13.495 3 14 C2.855625 12.7625 2.71125 11.525 2.5625 10.25 C2.10629596 6.6132185 1.65136856 3.30273711 0 0 Z " fill="#A199A4" transform="translate(161,343)"/>
<path d="M0 0 C2 3 2 3 3 7 C-0.63 7 -4.26 7 -8 7 C-7.34 5.68 -6.68 4.36 -6 3 C-6 3.66 -6 4.32 -6 5 C-4.02 4.67 -2.04 4.34 0 4 C0 2.68 0 1.36 0 0 Z " fill="#DFD7E4" transform="translate(342,341)"/>
<path d="M0 0 C0.90492188 0.02320313 1.80984375 0.04640625 2.7421875 0.0703125 C4.10730469 0.09738281 4.10730469 0.09738281 5.5 0.125 C6.19867188 0.14820313 6.89734375 0.17140625 7.6171875 0.1953125 C7.2871875 0.8553125 6.9571875 1.5153125 6.6171875 2.1953125 C5.6890625 2.1128125 4.7609375 2.0303125 3.8046875 1.9453125 C0.52652573 1.828911 0.52652573 1.828911 -1.1328125 4.1953125 C-1.5453125 4.8553125 -1.9578125 5.5153125 -2.3828125 6.1953125 C-3.0428125 6.1953125 -3.7028125 6.1953125 -4.3828125 6.1953125 C-4.7128125 6.8553125 -5.0428125 7.5153125 -5.3828125 8.1953125 C-4.36047821 0.35741625 -4.36047821 0.35741625 0 0 Z " fill="#8A7F91" transform="translate(337.3828125,325.8046875)"/>
<path d="M0 0 C2.31 0 4.62 0 7 0 C7 1.32 7 2.64 7 4 C4.36 4 1.72 4 -1 4 C-0.67 2.68 -0.34 1.36 0 0 Z " fill="#211130" transform="translate(406,345)"/>
<path d="M0 0 C2 1.3125 2 1.3125 4 3 C4 3.99 4 4.98 4 6 C4.66 6 5.32 6 6 6 C7.32 8.97 8.64 11.94 10 15 C6.10058251 13.70019417 5.46742511 12.06745898 3.3125 8.625 C2.68988281 7.64789063 2.06726563 6.67078125 1.42578125 5.6640625 C0 3 0 3 0 0 Z " fill="#CCBEF5" transform="translate(271,270)"/>
<path d="M0 0 C1.32 0.33 2.64 0.66 4 1 C3.2884375 1.7115625 3.2884375 1.7115625 2.5625 2.4375 C-0.16657342 6.9131804 -0.29328347 11.9470157 0.4375 17.0625 C0.623125 17.701875 0.80875 18.34125 1 19 C-1.64116845 16.35883155 -2.00103701 14.98734853 -2.3125 11.1875 C-2.17048026 7.20347249 -1.25701255 3.77103764 0 0 Z " fill="#DCCFFB" transform="translate(338,119)"/>
<path d="M0 0 C2.64 0.33 5.28 0.66 8 1 C8.66 4.3 9.32 7.6 10 11 C9.01 9.68 8.02 8.36 7 7 C5.68733482 5.64631404 4.35432675 4.31200404 3 3 C2 2 1 1 0 0 Z " fill="#CBB9F6" transform="translate(239,116)"/>
<path d="M0 0 C0.66 0.33 1.32 0.66 2 1 C1.195625 1.763125 0.39125 2.52625 -0.4375 3.3125 C-3.16799024 5.79430898 -3.16799024 5.79430898 -4 9 C-7.0625 10.6875 -7.0625 10.6875 -10 12 C-7.75066455 6.93899525 -4.58147862 3.10886049 0 0 Z " fill="#D8CAFA" transform="translate(173,16)"/>
<path d="M0 0 C3.28220895 1.64110448 3.74570789 4.69322988 5 8 C5 8.99 5 9.98 5 11 C5.66 11 6.32 11 7 11 C7.33 10.34 7.66 9.68 8 9 C7.67 10.65 7.34 12.3 7 14 C6.34 14 5.68 14 5 14 C4.15973604 12.23244474 3.32801278 10.46082737 2.5 8.6875 C2.0359375 7.70136719 1.571875 6.71523438 1.09375 5.69921875 C0 3 0 3 0 0 Z " fill="#DED7E2" transform="translate(315,345)"/>
<path d="M0 0 C0.99 0.33 1.98 0.66 3 1 C2.67 2.65 2.34 4.3 2 6 C0.125 6.625 0.125 6.625 -2 7 C-2.66 6.34 -3.32 5.68 -4 5 C-3.34 5 -2.68 5 -2 5 C-1.7834375 4.0409375 -1.7834375 4.0409375 -1.5625 3.0625 C-1 1 -1 1 0 0 Z " fill="#251132" transform="translate(278,336)"/>
<path d="M0 0 C1.32 0.33 2.64 0.66 4 1 C4 1.66 4 2.32 4 3 C5.32 3.66 6.64 4.32 8 5 C8 6.65 8 8.3 8 10 C6.62437146 8.71034824 5.29233607 7.37310707 4 6 C4 5.34 4 4.68 4 4 C3.34 4 2.68 4 2 4 C1.34 2.68 0.68 1.36 0 0 Z " fill="#C9B9F3" transform="translate(257,250)"/>
<path d="M0 0 C0.33 0 0.66 0 1 0 C1.02708567 1.60407328 1.04643483 3.2082785 1.0625 4.8125 C1.07410156 5.70582031 1.08570313 6.59914062 1.09765625 7.51953125 C1 10 1 10 0 13 C-1.65 13.33 -3.3 13.66 -5 14 C-4.360625 12.989375 -3.72125 11.97875 -3.0625 10.9375 C-0.93151044 7.24780076 -0.34460387 4.22139745 0 0 Z " fill="#C3AEF6" transform="translate(364,127)"/>
<path d="M0 0 C1.32 0 2.64 0 4 0 C4 0.66 4 1.32 4 2 C4.99 2 5.98 2 7 2 C7 3.98 7 5.96 7 8 C6.34 8 5.68 8 5 8 C3.1402289 5.40759181 1.42794577 2.85589153 0 0 Z " fill="#B5A0F3" transform="translate(358,118)"/>
<path d="M0 0 C1.32 0.66 2.64 1.32 4 2 C4 2.66 4 3.32 4 4 C3.34 4 2.68 4 2 4 C1.67 4.99 1.34 5.98 1 7 C0.01 6.67 -0.98 6.34 -2 6 C-1.34 4.02 -0.68 2.04 0 0 Z " fill="#20142C" transform="translate(139,351)"/>
<path d="M0 0 C0.94616328 3.42984189 1 6.44175575 1 10 C-0.98 10.99 -0.98 10.99 -3 12 C-2.69106068 10.3743193 -2.3777305 8.74947252 -2.0625 7.125 C-1.88847656 6.22007812 -1.71445313 5.31515625 -1.53515625 4.3828125 C-1 2 -1 2 0 0 Z " fill="#554660" transform="translate(233,332)"/>
<path d="M0 0 C3.83206182 0.41427695 6.08025204 1.51280729 9 4 C8.67 4.66 8.34 5.32 8 6 C6.68 6 5.36 6 4 6 C3.67 4.68 3.34 3.36 3 2 C1.68 1.67 0.36 1.34 -1 1 C-0.67 0.67 -0.34 0.34 0 0 Z " fill="#766A7F" transform="translate(384,327)"/>
<path d="M0 0 C0.66 0.33 1.32 0.66 2 1 C2.66 1 3.32 1 4 1 C3.814375 1.598125 3.62875 2.19625 3.4375 2.8125 C2.77906313 5.16408762 2.77906313 5.16408762 4 8 C0.125 6.125 0.125 6.125 -1 5 C-1.33 4.01 -1.66 3.02 -2 2 C-1.34 2 -0.68 2 0 2 C0 1.34 0 0.68 0 0 Z " fill="#22112E" transform="translate(279,327)"/>
<path d="M0 0 C-0.99 1.32 -1.98 2.64 -3 4 C-5.64 3.34 -8.28 2.68 -11 2 C-10.67 1.34 -10.34 0.68 -10 0 C-6.18015204 -0.77811718 -3.73159669 -1.24386556 0 0 Z " fill="#271534" transform="translate(151,329)"/>
<path d="M0 0 C0.99 0.33 1.98 0.66 3 1 C2.67257812 1.56203125 2.34515625 2.1240625 2.0078125 2.703125 C0.88214506 5.26859964 0.7931889 6.96842277 0.875 9.75 C0.89304687 10.54921875 0.91109375 11.3484375 0.9296875 12.171875 C0.95289063 12.77515625 0.97609375 13.3784375 1 14 C0.34 14 -0.32 14 -1 14 C-1.02685938 11.85423363 -1.04633088 9.70837355 -1.0625 7.5625 C-1.07410156 6.36753906 -1.08570313 5.17257813 -1.09765625 3.94140625 C-1 1 -1 1 0 0 Z " fill="#9379E6" transform="translate(278,121)"/>
<path d="M0 0 C-3.94637206 2.63091471 -7.72602103 3.40815007 -12.4375 2.5625 C-12.953125 2.376875 -13.46875 2.19125 -14 2 C-9.35150485 -0.3992233 -5.08913926 -0.19957409 0 0 Z " fill="#BDACF1" transform="translate(206,3)"/>
<path d="M0 0 C0.99 0.33 1.98 0.66 3 1 C3 2.65 3 4.3 3 6 C1.35 5.67 -0.3 5.34 -2 5 C-1.125 1.125 -1.125 1.125 0 0 Z " fill="#2B1838" transform="translate(161,352)"/>
<path d="M0 0 C1.53445094 3.06890187 0.54984289 5.70094266 0 9 C-1.32 8.67 -2.64 8.34 -4 8 C-3.40072174 4.64404172 -2.15377564 2.62198774 0 0 Z " fill="#291435" transform="translate(197,346)"/>
<path d="M0 0 C1.32 0.33 2.64 0.66 4 1 C4 1.66 4 2.32 4 3 C9.445 2.505 9.445 2.505 15 2 C15 2.66 15 3.32 15 4 C10.71 4 6.42 4 2 4 C1.34 2.68 0.68 1.36 0 0 Z " fill="#BCA7F2" transform="translate(284,141)"/>
<path d="M0 0 C1.65 0.33 3.3 0.66 5 1 C4.01 1.495 4.01 1.495 3 2 C3 2.66 3 3.32 3 4 C1.02 4.33 -0.96 4.66 -3 5 C-2.01 3.35 -1.02 1.7 0 0 Z " fill="#1D0928" transform="translate(330,343)"/>
<path d="M0 0 C1.32 0.33 2.64 0.66 4 1 C4.33 2.32 4.66 3.64 5 5 C2.69 5 0.38 5 -2 5 C-1.34 4.67 -0.68 4.34 0 4 C0 2.68 0 1.36 0 0 Z " fill="#160921" transform="translate(286,356)"/>
<path d="M0 0 C0.97353743 3.02878312 1.24612776 5.02846457 0 8 C-2.0625 9.75 -2.0625 9.75 -4 11 C-3.21681311 7.08406554 -1.60820142 3.63593365 0 0 Z " fill="#9A8FA1" transform="translate(327,343)"/>
<path d="M0 0 C0.99 0 1.98 0 3 0 C1.8141763 3.37503669 0.72426311 5.64722731 -2 8 C-1.125 2.25 -1.125 2.25 0 0 Z " fill="#BDABEF" transform="translate(313,268)"/>
<path d="M0 0 C3.16115776 1.36983503 3.9927092 1.9890638 6 5 C3.69 4.67 1.38 4.34 -1 4 C-0.67 2.68 -0.34 1.36 0 0 Z " fill="#9377EB" transform="translate(410,17)"/>
<path d="M0 0 C0.99 0 1.98 0 3 0 C3.33 1.65 3.66 3.3 4 5 C2.68 5.33 1.36 5.66 0 6 C-1 3 -1 3 0 0 Z " fill="#483852" transform="translate(426,334)"/>
<path d="M0 0 C1 3 1 3 -0.4375 6.1875 C-1.2109375 7.5796875 -1.2109375 7.5796875 -2 9 C-2.33 9 -2.66 9 -3 9 C-3 6.69 -3 4.38 -3 2 C-2.01 2 -1.02 2 0 2 C0 1.34 0 0.68 0 0 Z " fill="#C2AEF2" transform="translate(432,198)"/>
<path d="M0 0 C0.66 0 1.32 0 2 0 C2.99 3.3 3.98 6.6 5 10 C0.07692308 5.69230769 0.07692308 5.69230769 -0.3125 2.1875 C-0.209375 1.465625 -0.10625 0.74375 0 0 Z " fill="#B29DF0" transform="translate(219,128)"/>
<path d="M0 0 C-0.66 0 -1.32 0 -2 0 C-2.33 0.99 -2.66 1.98 -3 3 C-4.32 3 -5.64 3 -7 3 C-7 2.01 -7 1.02 -7 0 C-3.86650268 -1.04449911 -3.01031744 -0.93423645 0 0 Z " fill="#1F0D2D" transform="translate(379,357)"/>
<path d="M0 0 C0.33 0.99 0.66 1.98 1 3 C-0.375 5.6875 -0.375 5.6875 -2 8 C-2.33 8 -2.66 8 -3 8 C-3.33 5.69 -3.66 3.38 -4 1 C-2.68 1.33 -1.36 1.66 0 2 C0 1.34 0 0.68 0 0 Z " fill="#9C94A2" transform="translate(233,349)"/>
<path d="M0 0 C0 0.99 0 1.98 0 3 C-1.75 3.6875 -1.75 3.6875 -4 4 C-6.25 2.5625 -6.25 2.5625 -8 1 C-5.36 0.67 -2.72 0.34 0 0 Z " fill="#70607A" transform="translate(158,346)"/>
<path d="M0 0 C0.98120464 3.05263664 0.98120464 4.94736336 0 8 C-0.99 8 -1.98 8 -3 8 C-2.37240135 5.07120629 -1.41377341 2.63904371 0 0 Z " fill="#9B90A2" transform="translate(178,332)"/>
<path d="M0 0 C0.99 0 1.98 0 3 0 C3.33 1.98 3.66 3.96 4 6 C2.68 6.33 1.36 6.66 0 7 C0.185625 6.21625 0.37125 5.4325 0.5625 4.625 C1.25962266 2.02910225 1.25962266 2.02910225 0 0 Z " fill="#311E3E" transform="translate(381,354)"/>
<path d="M0 0 C0.66 0.66 1.32 1.32 2 2 C1.34 3.32 0.68 4.64 0 6 C-1.32 5.67 -2.64 5.34 -4 5 C-4 4.34 -4 3.68 -4 3 C-3.01 3 -2.02 3 -1 3 C-0.67 2.01 -0.34 1.02 0 0 Z " fill="#210E2D" transform="translate(425,332)"/>
<path d="M0 0 C2.475 0.99 2.475 0.99 5 2 C2 4 2 4 -0.6875 3.625 C-1.450625 3.41875 -2.21375 3.2125 -3 3 C-2.01 2.01 -1.02 1.02 0 0 Z " fill="#230E33" transform="translate(382,327)"/>
<path d="M0 0 C2.475 0.495 2.475 0.495 5 1 C5.33 2.98 5.66 4.96 6 7 C3.95880212 5.38405168 1.95927063 3.7143618 0 2 C0 1.34 0 0.68 0 0 Z " fill="#C4B1F2" transform="translate(163,217)"/>
</svg>
